HIERARCHY
ROOT Hips
{
	OFFSET 0.000000 1.471914 24.280096
	CHANNELS 6 Xposition Yposition Zposition Xrotation Yrotation Zrotation
	JOINT Spine
	{
		OFFSET 0.000000 0.900110 1.860670
		CHANNELS 6 Xposition Yposition Zposition Xrotation Yrotation Zrotation
		JOINT Spine1
		{
			OFFSET 0.000000 0.400320 2.270309
			CHANNELS 6 Xposition Yposition Zposition Xrotation Yrotation Zrotation
			JOINT Spine2
			{
				OFFSET 0.000000 0.200920 2.296560
				CHANNELS 6 Xposition Yposition Zposition Xrotation Yrotation Zrotation
				JOINT Spine3
				{
					OFFSET 0.000000 0.000000 2.305330
					CHANNELS 6 Xposition Yposition Zposition Xrotation Yrotation Zrotation
					JOINT Neck
					{
						OFFSET 0.000000 -0.864490 6.051487
						CHANNELS 6 Xposition Yposition Zposition Xrotation Yrotation Zrotation
						JOINT Head
						{
							OFFSET 0.000000 -0.550429 3.121674
							CHANNELS 6 Xposition Yposition Zposition Xrotation Yrotation Zrotation
							End Site
							{
								OFFSET 0.000000 0.000000 3.731750
							}
						}
					}
					JOINT RightShoulder
					{
						OFFSET -0.788280 -1.313800 4.256718
						CHANNELS 6 Xposition Yposition Zposition Xrotation Yrotation Zrotation
						JOINT RightArm
						{
							OFFSET -3.915130 0.000000 0.000000
							CHANNELS 6 Xposition Yposition Zposition Xrotation Yrotation Zrotation
							JOINT RightForeArm
							{
								OFFSET -6.914910 0.000000 0.000000
								CHANNELS 6 Xposition Yposition Zposition Xrotation Yrotation Zrotation
								JOINT RightHand
								{
									OFFSET -6.096219 0.000000 0.000000
									CHANNELS 6 Xposition Yposition Zposition Xrotation Yrotation Zrotation
									JOINT RightHandEnd
									{
										OFFSET -1.749950 0.000000 0.000000
										CHANNELS 6 Xposition Yposition Zposition Xrotation Yrotation Zrotation
										End Site
										{
											OFFSET -1.749950 0.000000 0.000000
										}
									}
									JOINT RightHandThumb1
									{
										OFFSET -0.699980 -1.166630 -0.466648
										CHANNELS 6 Xposition Yposition Zposition Xrotation Yrotation Zrotation
										End Site
										{
											OFFSET -1.690319 -0.452920 0.000000
										}
									}
								}
							}
						}
					}
					JOINT LeftShoulder
					{
						OFFSET 0.788280 -1.313800 4.256718
						CHANNELS 6 Xposition Yposition Zposition Xrotation Yrotation Zrotation
						JOINT LeftArm
						{
							OFFSET 3.915130 0.000000 0.000000
							CHANNELS 6 Xposition Yposition Zposition Xrotation Yrotation Zrotation
							JOINT LeftForeArm
							{
								OFFSET 6.914910 0.000000 0.000000
								CHANNELS 6 Xposition Yposition Zposition Xrotation Yrotation Zrotation
								JOINT LeftHand
								{
									OFFSET 6.096219 0.000000 0.000000
									CHANNELS 6 Xposition Yposition Zposition Xrotation Yrotation Zrotation
									JOINT LeftHandEnd
									{
										OFFSET 1.749950 0.000000 0.000000
										CHANNELS 6 Xposition Yposition Zposition Xrotation Yrotation Zrotation
										End Site
										{
											OFFSET 1.749950 0.000000 0.000000
										}
									}
									JOINT LeftHandThumb1
									{
										OFFSET 0.699980 -1.166630 -0.466648
										CHANNELS 6 Xposition Yposition Zposition Xrotation Yrotation Zrotation
										End Site
										{
											OFFSET 1.690319 -0.452920 0.000000
										}
									}
								}
							}
						}
					}
				}
			}
		}
	}
	JOINT RightUpLeg
	{
		OFFSET -2.338570 -0.252550 -0.551512
		CHANNELS 6 Xposition Yposition Zposition Xrotation Yrotation Zrotation
		JOINT RightLeg
		{
			OFFSET 0.000000 0.000000 -10.744959
			CHANNELS 6 Xposition Yposition Zposition Xrotation Yrotation Zrotation
			JOINT RightFoot
			{
				OFFSET 0.000000 -0.000001 -10.930849
				CHANNELS 6 Xposition Yposition Zposition Xrotation Yrotation Zrotation
				JOINT RightToeBase
				{
					OFFSET 0.000000 -4.087269 -1.487650
					CHANNELS 6 Xposition Yposition Zposition Xrotation Yrotation Zrotation
					End Site
					{
						OFFSET 0.000000 -1.891870 0.000000
					}
				}
			}
		}
	}
	JOINT LeftUpLeg
	{
		OFFSET 2.338570 -0.252550 -0.551512
		CHANNELS 6 Xposition Yposition Zposition Xrotation Yrotation Zrotation
		JOINT LeftLeg
		{
			OFFSET 0.000000 0.000000 -10.744959
			CHANNELS 6 Xposition Yposition Zposition Xrotation Yrotation Zrotation
			JOINT LeftFoot
			{
				OFFSET 0.000000 -0.000001 -10.930849
				CHANNELS 6 Xposition Yposition Zposition Xrotation Yrotation Zrotation
				JOINT LeftToeBase
				{
					OFFSET 0.000000 -4.087269 -1.487650
					CHANNELS 6 Xposition Yposition Zposition Xrotation Yrotation Zrotation
					End Site
					{
						OFFSET 0.000000 -1.891870 0.000000
					}
				}
			}
		}
	}
}
MOTION
Frames: 4
Frame Time: 0.041667
0.000082 26.770073 33.778137 -4.419744 -8.843048 65.787474 -0.000018 0.900089 1.860701 18.659066 -7.160606 1.021896 0.000007 0.400251 2.270317 0.000000 -0.000001 0.000009 0.000017 0.200900 2.296576 0.000002 0.000001 0.000002 0.000030 0.000019 2.305330 -0.000011 -0.000002 5.924778 -0.000021 -0.864462 6.051425 -11.938418 4.340254 178.658665 0.000022 -0.550416 3.121685 -0.000010 -0.000001 -0.000004 -0.788279 -1.313728 4.256827 175.390146 62.336268 -31.775280 -3.915135 -0.000023 -0.000008 -0.000001 -0.000002 0.000000 -6.914909 -0.000015 0.000006 0.000009 0.000009 -66.773029 -6.096193 0.000030 0.000038 -0.000076 0.000003 -0.000036 -1.749898 -0.000038 0.000038 0.000002 0.000002 -0.000002 -0.699967 -1.166626 -0.466652 -0.000005 -0.000003 -0.000008 0.788259 -1.313743 4.256777 -141.036303 -68.586936 56.905578 3.915173 0.000019 -0.000038 0.000007 0.000004 0.000004 6.914941 -0.000063 0.000001 0.000009 -0.000018 52.861020 6.096231 0.000120 -0.000041 0.000018 0.000001 -0.000050 1.749985 0.000017 0.000037 -0.000008 -0.000008 0.000002 0.699967 -1.166613 -0.466628 0.000014 -0.000000 -0.000021 -2.338584 -0.252544 -0.551498 -59.951398 -9.052321 -2.794620 0.000000 -0.000021 -10.744956 87.129438 -6.331961 -7.483048 -0.000010 0.000082 -10.930839 0.000005 -0.000002 -0.000003 0.000005 -4.087236 -1.487641 0.000001 0.000004 0.000000 2.338574 -0.252524 -0.551490 -56.586464 6.255784 -2.673717 0.000001 -0.000027 -10.744925 89.357664 -7.492366 8.064124 -0.000004 0.000009 -10.930866 -0.000007 0.000006 -0.000003 -0.000014 -4.087198 -1.487643 -0.000006 0.000002 -0.000003 
0.000074 26.770079 33.778133 -4.246205 -8.900219 65.417209 -0.000024 0.900089 1.860698 18.421748 -6.916554 1.008100 0.000007 0.400251 2.270323 0.000002 -0.000001 0.000010 0.000015 0.200900 2.296576 0.000001 0.000001 0.000000 0.000029 0.000019 2.305334 -0.000012 -0.000003 6.454796 -0.000021 -0.864464 6.051441 -11.501448 4.560950 178.809407 0.000023 -0.550417 3.121685 -0.000009 -0.000001 -0.000005 -0.788273 -1.313730 4.256836 175.932996 62.612385 -31.859807 -3.915138 -0.000022 -0.000004 -0.000001 -0.000003 0.000002 -6.914904 -0.000012 0.000002 0.000010 0.000011 -66.614630 -6.096192 0.000023 0.000043 -0.000077 0.000004 -0.000037 -1.749898 -0.000044 0.000041 -0.000000 -0.000002 -0.000000 -0.699969 -1.166631 -0.466647 -0.000007 -0.000007 -0.000006 0.788260 -1.313744 4.256786 -143.996152 -69.962522 53.512316 3.915170 0.000018 -0.000046 0.000006 0.000003 0.000003 6.914944 -0.000063 0.000006 0.000010 -0.000022 51.055234 6.096220 0.000127 -0.000043 0.000018 0.000006 -0.000049 1.749984 0.000018 0.000040 -0.000003 -0.000008 -0.000002 0.699967 -1.166613 -0.466623 0.000014 0.000000 -0.000023 -2.338587 -0.252542 -0.551496 -59.751062 -9.160749 -2.786823 0.000006 -0.000022 -10.744956 86.950528 -6.623626 -7.587361 -0.000009 0.000082 -10.930835 0.000007 -0.000002 -0.000002 0.000001 -4.087235 -1.487643 0.000000 0.000005 0.000000 2.338568 -0.252523 -0.551489 -56.186950 6.014942 -2.657606 0.000001 -0.000024 -10.744920 89.105015 -7.101837 7.830735 -0.000005 0.000009 -10.930866 -0.000005 0.000004 -0.000001 -0.000017 -4.087199 -1.487643 -0.000001 0.000001 -0.000001 
0.000073 26.770079 33.778149 -4.490445 -8.739885 65.503399 -0.000020 0.900088 1.860697 18.419678 -7.308985 0.992399 0.000005 0.400252 2.270321 -0.000000 -0.000001 0.000008 0.000015 0.200900 2.296576 0.000001 0.000002 0.000004 0.000028 0.000018 2.305330 -0.000010 -0.000004 6.272030 -0.000021 -0.864466 6.051439 -11.633338 4.567863 179.457838 0.000024 -0.550418 3.121689 -0.000008 -0.000001 -0.000006 -0.788280 -1.313732 4.256835 177.445118 61.977840 -33.520082 -3.915136 -0.000022 -0.000000 -0.000000 -0.000001 0.000000 -6.914907 -0.000014 0.000001 0.000010 0.000011 -66.777496 -6.096194 0.000022 0.000043 -0.000077 -0.000001 -0.000032 -1.749893 -0.000042 0.000037 0.000000 -0.000000 -0.000002 -0.699968 -1.166623 -0.466653 -0.000004 -0.000006 -0.000008 0.788259 -1.313746 4.256791 -144.208106 -70.025463 53.552392 3.915173 0.000019 -0.000050 0.000006 0.000003 0.000004 6.914941 -0.000064 -0.000006 0.000008 -0.000015 52.771903 6.096223 0.000126 -0.000040 0.000016 0.000003 -0.000053 1.749981 0.000025 0.000036 -0.000003 -0.000005 -0.000001 0.699965 -1.166604 -0.466635 0.000016 0.000006 -0.000022 -2.338583 -0.252546 -0.551496 -59.935934 -9.311561 -2.748918 0.000004 -0.000024 -10.744959 86.828937 -6.400166 -7.769644 -0.000008 0.000080 -10.930833 0.000007 -0.000004 -0.000001 0.000005 -4.087234 -1.487642 0.000002 0.000003 -0.000001 2.338574 -0.252528 -0.551490 -56.285318 5.475413 -2.614181 -0.000002 -0.000027 -10.744923 88.870836 -7.136892 7.254667 -0.000003 0.000009 -10.930862 -0.000005 0.000003 -0.000004 -0.000020 -4.087198 -1.487642 -0.000007 0.000000 -0.000004 
0.000069 26.770077 33.778137 -4.904970 -9.250838 65.870344 -0.000022 0.900089 1.860697 19.032853 -6.742594 1.038363 0.000003 0.400251 2.270319 -0.000000 -0.000000 0.000012 0.000013 0.200899 2.296572 0.000000 0.000001 0.000003 0.000029 0.000020 2.305326 -0.000012 -0.000002 5.892905 -0.000019 -0.864469 6.051434 -11.323023 3.594944 179.781056 0.000024 -0.550420 3.121681 -0.000008 -0.000001 -0.000003 -0.788275 -1.313734 4.256827 176.690109 63.008447 -32.929384 -3.915132 -0.000022 -0.000004 -0.000000 -0.000003 0.000000 -6.914908 -0.000015 0.000009 0.000011 0.000008 -66.209081 -6.096192 0.000028 0.000046 -0.000076 0.000005 -0.000035 -1.749897 -0.000039 0.000041 -0.000002 -0.000000 -0.000001 -0.699968 -1.166626 -0.466648 -0.000009 -0.000008 -0.000009 0.788258 -1.313749 4.256780 -141.930675 -68.708022 57.046140 3.915172 0.000019 -0.000042 0.000007 0.000002 0.000003 6.914944 -0.000061 -0.000005 0.000013 -0.000025 49.403615 6.096220 0.000124 -0.000036 0.000018 0.000005 -0.000047 1.749985 0.000025 0.000043 -0.000005 -0.000009 -0.000002 0.699971 -1.166609 -0.466629 0.000018 0.000000 -0.000026 -2.338586 -0.252543 -0.551501 -59.052436 -9.524017 -2.764223 0.000002 -0.000016 -10.744960 86.511750 -6.214502 -7.912766 -0.000009 0.000082 -10.930837 0.000003 -0.000001 -0.000002 -0.000001 -4.087236 -1.487643 0.000003 0.000002 0.000001 2.338573 -0.252526 -0.551489 -55.157350 6.002399 -2.620830 -0.000000 -0.000026 -10.744923 88.005109 -7.987911 7.871640 -0.000002 0.000009 -10.930863 -0.000005 0.000002 -0.000009 -0.000017 -4.087204 -1.487643 0.000000 0.000001 -0.000000 
